<?xml version="1.0" encoding="UTF-8" standalone="no"?>
<!-- Created with Inkscape (http://www.inkscape.org/) -->
<svg
   xmlns:dc="http://purl.org/dc/elements/1.1/"
   xmlns:cc="http://creativecommons.org/ns#"
   xmlns:rdf="http://www.w3.org/1999/02/22-rdf-syntax-ns#"
   xmlns:svg="http://www.w3.org/2000/svg"
   xmlns="http://www.w3.org/2000/svg"
   xmlns:xlink="http://www.w3.org/1999/xlink"
   xmlns:sodipodi="http://sodipodi.sourceforge.net/DTD/sodipodi-0.dtd"
   xmlns:inkscape="http://www.inkscape.org/namespaces/inkscape"
   width="300"
   height="299.99997"
   id="svg3422"
   sodipodi:version="0.32"
   inkscape:version="0.46"
   version="1.0"
   sodipodi:docname="rallyx on.svg"
   inkscape:output_extension="org.inkscape.output.svg.inkscape"
   inkscape:export-filename="C:\Documents and Settings\mfurr.000\Desktop\scca website\images\rallyx off.png"
   inkscape:export-xdpi="30"
   inkscape:export-ydpi="30">
  <defs
     id="defs3424">
    <radialGradient
       inkscape:collect="always"
       xlink:href="#linearGradient5798"
       id="radialGradient6069"
       gradientUnits="userSpaceOnUse"
       gradientTransform="translate(-69.128111,258.4343)"
       spreadMethod="repeat"
       cx="290.06403"
       cy="40.78981"
       fx="290.06403"
       fy="40.78981"
       r="10.794278" />
    <filter
       inkscape:collect="always"
       id="filter5822">
      <feGaussianBlur
         inkscape:collect="always"
         stdDeviation="0.10794278"
         id="feGaussianBlur5824" />
    </filter>
    <linearGradient
       inkscape:collect="always"
       id="linearGradient5798">
      <stop
         style="stop-color:#000000;stop-opacity:1;"
         offset="0"
         id="stop5800" />
      <stop
         style="stop-color:#000000;stop-opacity:0;"
         offset="1"
         id="stop5802" />
    </linearGradient>
    <radialGradient
       inkscape:collect="always"
       xlink:href="#linearGradient5798"
       id="radialGradient6075"
       gradientUnits="userSpaceOnUse"
       gradientTransform="translate(56.865319,258.4343)"
       spreadMethod="repeat"
       cx="290.06403"
       cy="40.78981"
       fx="290.06403"
       fy="40.78981"
       r="10.794278" />
    <filter
       inkscape:collect="always"
       id="filter5890">
      <feGaussianBlur
         inkscape:collect="always"
         stdDeviation="0.29366271"
         id="feGaussianBlur5892" />
    </filter>
    <linearGradient
       id="linearGradient5894">
      <stop
         style="stop-color:#000000;stop-opacity:1;"
         offset="0"
         id="stop5896" />
      <stop
         id="stop5902"
         offset="0.5"
         style="stop-color:#000000;stop-opacity:0.49803922;" />
      <stop
         style="stop-color:#000000;stop-opacity:0.58928573;"
         offset="1"
         id="stop5898" />
    </linearGradient>
    <radialGradient
       inkscape:collect="always"
       xlink:href="#linearGradient5894"
       id="radialGradient6003"
       gradientUnits="userSpaceOnUse"
       gradientTransform="matrix(1,0,0,1.2120712,0,-68.060775)"
       spreadMethod="reflect"
       cx="255.71428"
       cy="320.93362"
       fx="255.71428"
       fy="320.93362"
       r="87.571663" />
    <inkscape:perspective
       sodipodi:type="inkscape:persp3d"
       inkscape:vp_x="0 : 526.18109 : 1"
       inkscape:vp_y="0 : 1000 : 0"
       inkscape:vp_z="744.09448 : 526.18109 : 1"
       inkscape:persp3d-origin="372.04724 : 350.78739 : 1"
       id="perspective3430" />
    <radialGradient
       inkscape:collect="always"
       xlink:href="#linearGradient5894"
       id="radialGradient3502"
       gradientUnits="userSpaceOnUse"
       gradientTransform="matrix(2.8539849,0,0,2.8515295,-365.51899,-547.07521)"
       spreadMethod="reflect"
       cx="255.71428"
       cy="320.93362"
       fx="255.71428"
       fy="320.93362"
       r="87.571663" />
    <radialGradient
       inkscape:collect="always"
       xlink:href="#linearGradient5798"
       id="radialGradient3535"
       gradientUnits="userSpaceOnUse"
       gradientTransform="translate(56.865319,258.4343)"
       spreadMethod="repeat"
       cx="290.06403"
       cy="40.78981"
       fx="290.06403"
       fy="40.78981"
       r="10.794278" />
    <radialGradient
       inkscape:collect="always"
       xlink:href="#linearGradient5798"
       id="radialGradient3537"
       gradientUnits="userSpaceOnUse"
       gradientTransform="translate(-69.128111,258.4343)"
       spreadMethod="repeat"
       cx="290.06403"
       cy="40.78981"
       fx="290.06403"
       fy="40.78981"
       r="10.794278" />
    <radialGradient
       inkscape:collect="always"
       xlink:href="#linearGradient5894"
       id="radialGradient3608"
       gradientUnits="userSpaceOnUse"
       gradientTransform="matrix(1.4269924,0,0,1.4257647,-134.46664,-225.79503)"
       spreadMethod="reflect"
       cx="255.71428"
       cy="320.93362"
       fx="255.71428"
       fy="320.93362"
       r="87.571663" />
    <filter
       inkscape:collect="always"
       id="filter3517"
       x="-0.26043682"
       width="1.5208736"
       y="-0.20025511"
       height="1.4005102">
      <feGaussianBlur
         inkscape:collect="always"
         stdDeviation="10.262105"
         id="feGaussianBlur3519" />
    </filter>
    <filter
       inkscape:collect="always"
       id="filter3747">
      <feGaussianBlur
         inkscape:collect="always"
         stdDeviation="0.37899126"
         id="feGaussianBlur3749" />
    </filter>
    <filter
       inkscape:collect="always"
       id="filter3855"
       x="-0.030816868"
       width="1.0616337"
       y="-0.13772992"
       height="1.2754598">
      <feGaussianBlur
         inkscape:collect="always"
         stdDeviation="2.1324844"
         id="feGaussianBlur3857" />
    </filter>
    <inkscape:perspective
       id="perspective3943"
       inkscape:persp3d-origin="372.04724 : 350.78739 : 1"
       inkscape:vp_z="744.09448 : 526.18109 : 1"
       inkscape:vp_y="0 : 1000 : 0"
       inkscape:vp_x="0 : 526.18109 : 1"
       sodipodi:type="inkscape:persp3d" />
    <filter
       inkscape:collect="always"
       id="filter4132"
       x="-0.14300485"
       width="1.2860097"
       y="-0.099976842"
       height="1.1999537">
      <feGaussianBlur
         inkscape:collect="always"
         stdDeviation="2.2483759"
         id="feGaussianBlur4134" />
    </filter>
    <filter
       inkscape:collect="always"
       id="filter4226"
       x="-0.075175411"
       width="1.1503508"
       y="-0.1138808"
       height="1.2277616">
      <feGaussianBlur
         inkscape:collect="always"
         stdDeviation="3.0668484"
         id="feGaussianBlur4228" />
    </filter>
  </defs>
  <sodipodi:namedview
     id="base"
     pagecolor="#ffffff"
     bordercolor="#666666"
     borderopacity="1.0"
     gridtolerance="10000"
     guidetolerance="10"
     objecttolerance="10"
     inkscape:pageopacity="0.0"
     inkscape:pageshadow="2"
     inkscape:zoom="0.78510724"
     inkscape:cx="-108.67314"
     inkscape:cy="209.38418"
     inkscape:document-units="px"
     inkscape:current-layer="layer1"
     showgrid="false"
     inkscape:window-width="1280"
     inkscape:window-height="744"
     inkscape:window-x="0"
     inkscape:window-y="22" />
  <metadata
     id="metadata3427">
    <rdf:RDF>
      <cc:Work
         rdf:about="">
        <dc:format>image/svg+xml</dc:format>
        <dc:type
           rdf:resource="http://purl.org/dc/dcmitype/StillImage" />
      </cc:Work>
    </rdf:RDF>
  </metadata>
  <g
     inkscape:label="Layer 1"
     inkscape:groupmode="layer"
     id="layer1"
     transform="translate(-80.435705,-81.780827)">
    <path
       style="fill:#1c1d1f;fill-opacity:1;fill-rule:evenodd;stroke:#000000;stroke-width:1.55471921;stroke-linecap:square;stroke-linejoin:miter;stroke-miterlimit:4;stroke-dashoffset:0;stroke-opacity:1"
       d="M 379.65834,231.78081 C 379.65834,314.15171 312.8066,381.00345 230.4357,381.00345 C 148.0648,381.00345 81.213065,314.15171 81.213065,231.78081 C 81.213065,149.40993 148.0648,82.558187 230.4357,82.558187 C 312.8066,82.558187 379.65834,149.40993 379.65834,231.78081 z"
       id="path2383" />
    <path
       style="fill:#353736;fill-opacity:1;fill-rule:evenodd;stroke:url(#radialGradient3608);stroke-width:1.11111116;stroke-linecap:square;stroke-linejoin:miter;stroke-miterlimit:4;stroke-dashoffset:0;stroke-opacity:1"
       d="M 354.78791,231.78081 C 354.78791,300.42322 299.07813,356.133 230.43571,356.133 C 161.79329,356.133 106.08351,300.42322 106.08351,231.78081 C 106.08351,163.13841 161.79329,107.42863 230.43571,107.42863 C 299.07813,107.42863 354.78791,163.13841 354.78791,231.78081 z"
       id="path2638" />
    <path
       transform="matrix(1.3814195,0,0,1.1655725,-237.912,50.238375)"
       style="opacity:0.83999999;fill:none;fill-opacity:1;fill-rule:evenodd;stroke:#000000;stroke-width:0.8756389;stroke-linecap:square;stroke-linejoin:miter;stroke-miterlimit:4;stroke-dashoffset:0;stroke-opacity:1;filter:url(#filter5890)"
       d="M 398.29294,192.78748 C 398.29294,198.40684 394.44489,202.96749 389.70355,202.96749 C 384.96221,202.96749 381.11417,198.40684 381.11417,192.78748 C 381.11417,187.16811 384.96221,182.60746 389.70355,182.60746 C 394.44489,182.60746 398.29294,187.16811 398.29294,192.78748 z"
       id="path5838" />
    <path
       d="M 346.92937,290.99554 L 346.92937,307.45268 M 355.15794,299.22411 L 338.7008,299.22411"
       style="fill:none;fill-rule:evenodd;stroke:url(#radialGradient3535);stroke-width:5.13141584;stroke-linecap:butt;stroke-linejoin:miter;stroke-opacity:1;filter:url(#filter5822)"
       id="path5840"
       transform="matrix(1.1111111,0,0,1.1111111,-85.045017,-57.525068)" />
    <path
       transform="matrix(1.3814195,0,0,1.1655725,-377.9047,50.238375)"
       style="opacity:0.83999999;fill:none;fill-opacity:1;fill-rule:evenodd;stroke:#000000;stroke-width:0.8756389;stroke-linecap:square;stroke-linejoin:miter;stroke-miterlimit:4;stroke-dashoffset:0;stroke-opacity:1;filter:url(#filter5890)"
       d="M 398.29294,192.78748 C 398.29294,198.40684 394.44489,202.96749 389.70355,202.96749 C 384.96221,202.96749 381.11417,198.40684 381.11417,192.78748 C 381.11417,187.16811 384.96221,182.60746 389.70355,182.60746 C 394.44489,182.60746 398.29294,187.16811 398.29294,192.78748 z"
       id="path5912" />
    <path
       id="path5914"
       style="fill:none;fill-rule:evenodd;stroke:url(#radialGradient3537);stroke-width:5.13141584;stroke-linecap:butt;stroke-linejoin:miter;stroke-opacity:1;filter:url(#filter5822)"
       d="M 220.93594,290.99554 L 220.93594,307.45268 M 229.16451,299.22411 L 212.70737,299.22411"
       transform="matrix(1.1111111,0,0,1.1111111,-85.045017,-57.525068)" />
    <g
       id="g3961"
       transform="matrix(1.9113924,0,0,1.6607669,210.35832,-111.30323)"
       style="fill:#e2f700;fill-opacity:1">
      <path
         sodipodi:nodetypes="ccccccccccccccccccccc"
         id="path3953"
         d="M -4.584526,172.5737 L 0.98796186,172.57371 L 1.4656058,170.02628 L 16.909349,170.1855 L 17.546211,172.89213 L 22.322622,172.73292 L 22.322619,168.75258 L 23.437117,166.20515 L 23.596331,161.58795 L 27.735899,161.26952 L 26.143761,157.76681 L 23.596333,157.6076 L 17.705419,149.16926 L -0.4449707,149.32848 L -5.6990207,157.44839 L -8.5648807,157.76681 L -9.9978007,161.26952 L -5.8582385,161.42874 L -5.6990207,166.20515 L -4.584526,169.38943 L -4.584526,172.5737 z"
         style="fill:#e2f700;fill-rule:evenodd;stroke:none;stroke-width:1px;stroke-linecap:butt;stroke-linejoin:miter;stroke-opacity:1;fill-opacity:1" />
      <path
         sodipodi:nodetypes="ccccccccc"
         transform="translate(80.435705,81.780827)"
         id="path3957"
         d="M -84.701805,93.977158 C -78.579114,99.592207 -76.457821,101.3029 -78.810891,103.37077 C -83.296438,106.32037 -91.098408,107.85341 -87.249228,112.44598 L -80.721457,121.36195 L -74.989756,121.20274 L -81.039885,112.60519 C -85.634208,109.49474 -74.916839,107.19017 -71.805477,104.48528 C -68.932958,101.77078 -75.340749,97.14131 -78.970104,93.977158 L -84.701805,93.977158 z"
         style="fill:#e2f700;fill-rule:evenodd;stroke:none;stroke-width:1px;stroke-linecap:butt;stroke-linejoin:miter;stroke-opacity:1;fill-opacity:1" />
      <path
         style="fill:#e2f700;fill-rule:evenodd;stroke:none;stroke-width:1px;stroke-linecap:butt;stroke-linejoin:miter;stroke-opacity:1;fill-opacity:1"
         d="M 13.725073,175.75799 C 19.847764,181.37304 21.969057,183.08373 19.615987,185.1516 C 15.13044,188.1012 7.3284696,189.63424 11.17765,194.22681 L 17.705421,203.14278 L 23.437122,202.98357 L 17.386993,194.38602 C 12.79267,191.27557 23.510039,188.971 26.621401,186.26611 C 29.49392,183.55161 23.086129,178.92214 19.456774,175.75799 L 13.725073,175.75799 z"
         id="path3959"
         sodipodi:nodetypes="ccccccccc" />
    </g>
    <text
       xml:space="preserve"
       style="font-size:40px;font-style:normal;font-weight:normal;text-align:center;line-height:89.99999762000000200%;writing-mode:lr-tb;text-anchor:middle;fill:#ffffff;fill-opacity:1;stroke:none;stroke-width:1px;stroke-linecap:butt;stroke-linejoin:miter;stroke-opacity:1;font-family:Bitstream Vera Sans"
       x="232.00735"
       y="287.52615"
       id="text3966"
       sodipodi:linespacing="89.999998%"><tspan
         sodipodi:role="line"
         id="tspan3968"
         x="232.00735"
         y="287.52615">Rally-</tspan><tspan
         sodipodi:role="line"
         x="232.00735"
         y="323.52615"
         id="tspan3970">X</tspan></text>
    <g
       style="fill:#e2f700;fill-opacity:1;filter:url(#filter4132)"
       transform="matrix(1.9113924,0,0,1.6607669,210.35832,-111.30323)"
       id="g3992">
      <path
         style="fill:#e2f700;fill-rule:evenodd;stroke:none;stroke-width:1px;stroke-linecap:butt;stroke-linejoin:miter;stroke-opacity:1;fill-opacity:1"
         d="M -4.584526,172.5737 L 0.98796186,172.57371 L 1.4656058,170.02628 L 16.909349,170.1855 L 17.546211,172.89213 L 22.322622,172.73292 L 22.322619,168.75258 L 23.437117,166.20515 L 23.596331,161.58795 L 27.735899,161.26952 L 26.143761,157.76681 L 23.596333,157.6076 L 17.705419,149.16926 L -0.4449707,149.32848 L -5.6990207,157.44839 L -8.5648807,157.76681 L -9.9978007,161.26952 L -5.8582385,161.42874 L -5.6990207,166.20515 L -4.584526,169.38943 L -4.584526,172.5737 z"
         id="path3994"
         sodipodi:nodetypes="ccccccccccccccccccccc" />
      <path
         style="fill:#e2f700;fill-rule:evenodd;stroke:none;stroke-width:1px;stroke-linecap:butt;stroke-linejoin:miter;stroke-opacity:1;fill-opacity:1"
         d="M -84.701805,93.977158 C -78.579114,99.592207 -76.457821,101.3029 -78.810891,103.37077 C -83.296438,106.32037 -91.098408,107.85341 -87.249228,112.44598 L -80.721457,121.36195 L -74.989756,121.20274 L -81.039885,112.60519 C -85.634208,109.49474 -74.916839,107.19017 -71.805477,104.48528 C -68.932958,101.77078 -75.340749,97.14131 -78.970104,93.977158 L -84.701805,93.977158 z"
         id="path3996"
         transform="translate(80.435705,81.780827)"
         sodipodi:nodetypes="ccccccccc" />
      <path
         sodipodi:nodetypes="ccccccccc"
         id="path3998"
         d="M 13.725073,175.75799 C 19.847764,181.37304 21.969057,183.08373 19.615987,185.1516 C 15.13044,188.1012 7.3284696,189.63424 11.17765,194.22681 L 17.705421,203.14278 L 23.437122,202.98357 L 17.386993,194.38602 C 12.79267,191.27557 23.510039,188.971 26.621401,186.26611 C 29.49392,183.55161 23.086129,178.92214 19.456774,175.75799 L 13.725073,175.75799 z"
         style="fill:#e2f700;fill-rule:evenodd;stroke:none;stroke-width:1px;stroke-linecap:butt;stroke-linejoin:miter;stroke-opacity:1;fill-opacity:1" />
    </g>
    <text
       sodipodi:linespacing="89.999998%"
       id="text4136"
       y="287.52615"
       x="232.00735"
       style="font-size:40px;font-style:normal;font-weight:normal;text-align:center;line-height:89.99999762000000200%;writing-mode:lr-tb;text-anchor:middle;fill:#ffffff;fill-opacity:1;stroke:none;stroke-width:1px;stroke-linecap:butt;stroke-linejoin:miter;stroke-opacity:1;font-family:Bitstream Vera Sans;filter:url(#filter4226)"
       xml:space="preserve"><tspan
         y="287.52615"
         x="232.00735"
         id="tspan4138"
         sodipodi:role="line">Rally-</tspan><tspan
         id="tspan4140"
         y="323.52615"
         x="232.00735"
         sodipodi:role="line">X</tspan></text>
  </g>
</svg>
